<?xml version="1.0" standalone="no"?>
<!DOCTYPE svg PUBLIC "-//W3C//DTD SVG 20010904//EN"
 "http://www.w3.org/TR/2001/REC-SVG-20010904/DTD/svg10.dtd">
<svg version="1.0" xmlns="http://www.w3.org/2000/svg"
 width="700.000000pt" height="700.000000pt" viewBox="0 0 700.000000 700.000000"
 preserveAspectRatio="xMidYMid meet">
<metadata>
Created by potrace 1.14, written by Peter Selinger 2001-2017
</metadata>
<g transform="translate(0.000000,700.000000) scale(0.100000,-0.100000)"
fill="#000000" stroke="none">
<path d="M1050 6984 c-156 -33 -286 -106 -398 -221 -111 -114 -192 -283 -208
-435 -9 -79 -9 -5143 0 -5216 25 -214 148 -416 326 -538 101 -70 232 -119 344
-131 89 -9 1462 -9 1524 0 109 16 200 84 249 187 39 80 39 193 0 271 -42 86
-98 138 -187 174 -42 17 -95 18 -792 19 l-746 1 -26 24 c-14 13 -30 38 -35 55
-5 19 -8 1036 -7 2561 1 2028 4 2534 14 2553 7 12 24 30 39 39 24 16 150 17
1917 17 1859 0 1893 0 1919 -20 14 -10 31 -30 37 -44 7 -17 11 -579 13 -1765
l2 -1740 33 -68 c59 -118 156 -179 292 -181 66 -1 84 3 142 32 76 37 120 82
157 162 l26 55 2 1760 c2 1931 4 1841 -58 1990 -72 174 -208 317 -374 396
-169 81 38 74 -2170 76 -1663 1 -1980 -1 -2035 -13z"/>
<path d="M1990 5236 c-130 -34 -226 -152 -238 -289 -12 -149 89 -297 233 -339
29 -9 315 -12 1072 -13 1203 -1 1112 -9 1217 98 72 73 99 136 99 230 -1 137
-87 260 -214 305 l-64 22 -1030 -1 c-780 0 -1041 -3 -1075 -13z"/>
<path d="M1995 3927 c-55 -13 -135 -66 -172 -114 -50 -63 -68 -117 -68 -208 0
-68 5 -89 29 -137 35 -69 84 -118 156 -155 l55 -28 520 0 520 0 56 28 c223
109 253 409 56 558 -85 64 -81 63 -622 64 -285 1 -507 -3 -530 -8z"/>
<path d="M6614 2619 c-103 -19 -104 -19 -639 -544 -189 -185 -748 -730 -840
-820 -55 -53 -177 -173 -271 -266 -95 -93 -176 -169 -180 -169 -5 0 -155 146
-334 324 -197 197 -341 332 -365 344 -163 81 -357 16 -442 -148 -25 -49 -28
-65 -28 -145 0 -74 5 -99 24 -140 19 -39 128 -154 480 -508 405 -407 463 -462
521 -490 56 -28 75 -32 140 -31 120 1 164 27 334 193 77 77 187 183 243 238
55 54 246 240 423 413 178 173 366 358 420 410 306 298 797 779 818 800 13 14
36 50 50 80 22 46 27 69 27 140 0 71 -5 93 -25 135 -66 132 -215 210 -356 184z"/>
</g>
</svg>
