<svg xmlns="http://www.w3.org/2000/svg" viewBox="0 0 512 512"><path d="M507.109 71.673L440.327 4.891A16.693 16.693 0 00428.522 0H50.087C22.469 0 0 22.469 0 50.087v411.826C0 489.531 22.469 512 50.087 512h411.826C489.531 512 512 489.531 512 461.913V83.478c0-4.429-1.76-8.674-4.891-11.805zM200.348 33.391h178.087v100.174H200.348V33.391zm-66.783 0h33.391v100.174h-33.391V33.391zm244.87 445.218h-244.87v-33.391h244.87v33.391zm0-66.783h-244.87v-33.391h244.87v33.391zm0-66.783h-244.87v-33.391h244.87v33.391zm100.174 116.87c0 9.206-7.49 16.696-16.696 16.696h-50.087V294.957c0-9.22-7.475-16.696-16.696-16.696H116.87c-9.22 0-16.696 7.475-16.696 16.696v183.652H50.087c-9.206 0-16.696-7.49-16.696-16.696V50.087c0-9.206 7.49-16.696 16.696-16.696h50.087v116.87c0 9.22 7.475 16.696 16.696 16.696h278.26c9.22 0 16.696-7.475 16.696-16.696V33.391h9.78l57.002 57.002v371.52z"/></svg>
